<?xml version="1.0" encoding="UTF-8"?>
<!-- Created with Inkscape (http://www.inkscape.org/) -->
<svg width="500" height="500" version="1.1" viewBox="0 0 500 500" xmlns="http://www.w3.org/2000/svg" xmlns:cc="http://creativecommons.org/ns#" xmlns:dc="http://purl.org/dc/elements/1.1/" xmlns:rdf="http://www.w3.org/1999/02/22-rdf-syntax-ns#">
 <metadata>
  <rdf:RDF>
   <cc:Work rdf:about="">
    <dc:format>image/svg+xml</dc:format>
    <dc:type rdf:resource="http://purl.org/dc/dcmitype/StillImage"/>
    <dc:title/>
   </cc:Work>
  </rdf:RDF>
 </metadata>
 <g stroke="#000">
  <rect x="3" y="3" width="494" height="494" rx="30" ry="30" fill="#ddd" stroke-linecap="round" stroke-linejoin="bevel" stroke-width="6"/>
  <path d="m76.795 100 129.9-75 43.301 25 43.301-25 129.9 75v50l43.301 25v150l-43.301 25v50l-129.9 75-43.301-25-43.301 25-129.9-75v-50l-43.301-25v-150l43.301-25z" fill="#fff" stroke-width="1px"/>
  <g fill="none" stroke-width=".5">
   <path d="m250 45v410"/>
   <path d="m206.7 19.999v460"/>
   <path d="m163.4 455v-410"/>
   <path d="m120.1 70v360"/>
   <path d="m76.795 95v310"/>
   <path d="m33.493 170v160"/>
   <path d="m293.3 19.999v460"/>
   <path d="m336.6 455v-410"/>
   <path d="m379.9 69.999v360"/>
   <path d="m423.21 94.999v310"/>
   <path d="m466.51 170v160"/>
   <path d="m427.53 147.5-355.07 205"/>
   <path d="m427.54 97.499-398.37 230"/>
   <path d="m29.163 277.5 355.07-205"/>
   <path d="m340.93 47.499-311.77 180"/>
   <path d="m297.63 22.499-268.47 155"/>
   <path d="m211.03 22.499-138.56 80"/>
   <path d="m470.84 172.5-398.37 230"/>
   <path d="m115.77 427.5 355.07-205"/>
   <path d="m470.84 272.5-311.77 180"/>
   <path d="m470.84 322.5-268.47 155"/>
   <path d="m427.54 397.5-138.56 80"/>
   <path d="m72.465 147.5 355.07 205"/>
   <path d="m29.163 172.5 398.37 230"/>
   <path d="m384.23 427.5-355.07-205"/>
   <path d="m29.163 272.5 311.77 180"/>
   <path d="m29.163 322.5 268.47 155"/>
   <path d="m72.465 397.5 138.56 80"/>
   <path d="m72.464 97.499 398.37 230"/>
   <path d="m470.84 277.5-355.07-205"/>
   <path d="m159.07 47.499 311.77 180"/>
   <path d="m202.37 22.499 268.47 155"/>
   <path d="m288.97 22.499 138.56 80"/>
  </g>
 </g>
 <g fill="#0088ff" font-family="sans-serif" font-size="26.667px" text-anchor="middle" word-spacing="0px">
  <g letter-spacing="-5px">
   <text transform="rotate(30)" x="251.77107" y="317.82205" text-align="center" style="line-height:1.25" xml:space="preserve"><tspan x="249.27107" y="317.82205">1</tspan></text>
   <text transform="rotate(30)" x="176.68584" y="274.71094" text-align="center" style="line-height:1.25" xml:space="preserve"><tspan x="174.18584" y="274.71094">2</tspan></text>
   <text transform="rotate(30)" x="151.85683" y="231.44229" text-align="center" style="line-height:1.25" xml:space="preserve"><tspan x="149.35683" y="231.44229">3</tspan></text>
   <text transform="rotate(30)" x="126.90257" y="188.31187" text-align="center" style="line-height:1.25" xml:space="preserve"><tspan x="124.40257" y="188.31187">4</tspan></text>
   <text transform="rotate(30)" x="101.97022" y="144.65759" text-align="center" style="line-height:1.25" xml:space="preserve"><tspan x="99.470222" y="144.65759">5</tspan></text>
   <text transform="rotate(30)" x="126.85448" y="101.47107" text-align="center" style="line-height:1.25" xml:space="preserve"><tspan x="124.35448" y="101.47107">6</tspan></text>
   <text transform="rotate(30)" x="101.84113" y="58.178596" text-align="center" style="line-height:1.25" xml:space="preserve"><tspan x="99.341133" y="58.178596">7</tspan></text>
   <text transform="rotate(30)" x="126.87391" y="14.99942" text-align="center" style="line-height:1.25" xml:space="preserve"><tspan x="124.37391" y="14.99942">8</tspan></text>
   <text transform="rotate(30)" x="151.8979" y="-28.1931" text-align="center" style="line-height:1.25" xml:space="preserve"><tspan x="149.3979" y="-28.1931">9</tspan></text>
   <text transform="rotate(30)" x="173.27628" y="-73.217667" text-align="center" style="line-height:1.25" xml:space="preserve"><tspan x="170.77628" y="-73.217667">10</tspan></text>
   <text transform="rotate(30)" x="248.35573" y="-116.10577" text-align="center" style="line-height:1.25" xml:space="preserve"><tspan x="245.85573" y="-116.10577">11</tspan></text>
   <text x="33.493412" y="355.00055" text-align="center" style="line-height:1.25" xml:space="preserve"><tspan x="33.493412" y="355.00055" letter-spacing="0px">A</tspan></text>
   <text x="76.794731" y="430.0007" text-align="center" style="line-height:1.25" xml:space="preserve"><tspan x="76.794731" y="430.0007" letter-spacing="0px">B</tspan></text>
  </g>
  <g letter-spacing="0px">
   <text x="120.09605" y="455.00079" text-align="center" style="line-height:1.25" xml:space="preserve"><tspan x="120.09605" y="455.00079">C</tspan></text>
   <text x="206.69868" y="497.50061" text-align="center" style="line-height:1.25" xml:space="preserve"><tspan x="206.69868" y="497.50061">E</tspan></text>
   <text x="250.00002" y="480.00101" text-align="center" style="line-height:1.25" xml:space="preserve"><tspan x="250.00002" y="480.00101">F</tspan></text>
   <text x="293.30133" y="497.5004" text-align="center" style="line-height:1.25" xml:space="preserve"><tspan x="293.30133" y="497.5004">G</tspan></text>
   <text x="336.60266" y="480.0007" text-align="center" style="line-height:1.25" xml:space="preserve"><tspan x="336.60266" y="480.0007">H</tspan></text>
   <text x="379.90396" y="455.00049" text-align="center" style="line-height:1.25" xml:space="preserve"><tspan x="379.90396" y="455.00049">I</tspan></text>
   <text x="423.20529" y="430.00049" text-align="center" style="line-height:1.25" xml:space="preserve"><tspan x="423.20529" y="430.00049">J</tspan></text>
   <text x="466.50662" y="355.00031" text-align="center" style="line-height:1.25" xml:space="preserve"><tspan x="466.50662" y="355.00031">K</tspan></text>
   <text x="163.39737" y="480.00089" text-align="center" style="line-height:1.25" xml:space="preserve"><tspan x="163.39737" y="480.00089">D</tspan></text>
  </g>
 </g>
 <g fill="none" stroke-linecap="round" stroke-linejoin="bevel">
  <circle cx="165.53" cy="-128.84" r="18" stroke="#000" stroke-width="9"/>
  <g stroke-width="8">
   <circle cx="165.53" cy="-78.836" r="18" stroke="#004"/>
   <circle cx="165.53" cy="-128.84" r="18" stroke="#ffb"/>
   <circle cx="208.83" cy="-103.84" r="18" stroke="#004"/>
  </g>
 </g>
 <g stroke-linecap="round" stroke-linejoin="bevel" stroke-width=".5">
  <circle cx="250.05" cy="-144.46" r="13" fill="#ffb" stroke="#004"/>
  <circle cx="293.35" cy="-119.46" r="13" fill="#004" stroke="#ffb"/>
 </g>
</svg>
